<svg
  xmlns="http://www.w3.org/2000/svg"
  viewBox="0 0 24 24"
  fill="currentColor"
  stroke="currentColor"
  stroke-width="1"
  stroke-linecap="square"
  stroke-linejoin="miter"
>
  <path d="M12 19a7 7 0 1 0 0-14 7 7 0 0 0 0 14z" />
  <path d="M15.899 12.899a4 4 0 0 1-4.797-4.797A4.002 4.002 0 0 0 12 16c1.9 0 3.49-1.325 3.899-3.101z" />
  <path d="M12 5V3M12 21v-2" />
  <path d="M5 12H2M22 12h-3M16.95 7.05L19.07 4.93M4.929 19.071L7.05 16.95M16.95 16.95l2.121 2.121M4.929 4.929L7.05 7.05" />
</svg>